<svg version="1.1" xmlns="http://www.w3.org/2000/svg" xmlns:xlink="http://www.w3.org/1999/xlink" width="119.69388" height="119.20805" viewBox="0,0,119.69388,119.20805"><g transform="translate(-180.15306,-120.39597)"><g data-paper-data="{&quot;isPaintingLayer&quot;:true}" fill="#000000" fill-rule="nonzero" stroke-width="10" stroke-linecap="butt" stroke-linejoin="miter" stroke-miterlimit="10" stroke-dasharray="" stroke-dashoffset="0" style="mix-blend-mode: normal"><path d="M185.15306,221.41734c0,-23.95649 0,-73.27586 0,-85.43487c0,-5.31597 6.26823,-10.5865 12.33136,-10.5865c12.73214,0 60.81161,0 84.29496,0c7.93952,0 13.06756,5.27053 13.06756,10.5865c0,12.2222 0,61.99203 0,85.80633c0,7.79977 -6.26823,12.81523 -12.33136,12.81523c-12.86669,0 -61.83176,0 -85.03116,0c-7.51889,0 -12.33136,-5.17506 -12.33136,-13.18669z" stroke="#ff5656"/><path d="M281,180c0,21.95332 -18.35632,39.75 -41,39.75c-22.64367,0 -41,-17.79668 -41,-39.75c0,-21.95332 18.35632,-39.75 41,-39.75c22.64368,0 41,17.79668 41,39.75z" stroke="#ff5656"/></g></g></svg>