<svg version="1.1" xmlns="http://www.w3.org/2000/svg" xmlns:xlink="http://www.w3.org/1999/xlink" width="119.69388" height="119.20806" viewBox="0,0,119.69388,119.20806"><g transform="translate(-180.15306,-120.39597)"><g data-paper-data="{&quot;isPaintingLayer&quot;:true}" fill="#000000" fill-rule="nonzero" stroke="#57ffce" stroke-width="10" stroke-linecap="butt" stroke-linejoin="miter" stroke-miterlimit="10" stroke-dasharray="" stroke-dashoffset="0" style="mix-blend-mode: normal"><path d="M185.15306,221.41734c0,-23.95649 0,-73.27586 0,-85.43487c0,-5.31597 6.26823,-10.5865 12.33136,-10.5865c12.73214,0 60.81161,0 84.29496,0c7.93952,0 13.06756,5.27053 13.06756,10.5865c0,12.2222 0,61.99203 0,85.80633c0,7.79977 -6.26823,12.81523 -12.33136,12.81523c-12.86669,0 -61.83176,0 -85.03116,0c-7.51889,0 -12.33136,-5.17506 -12.33136,-13.18669z"/><path d="M203.23313,207.76428c0,-16.05933 0,-49.12077 0,-57.27161c0,-3.56358 4.20193,-7.0967 8.26638,-7.0967c8.53504,0 40.76531,0 56.50746,0c5.32229,0 8.75989,3.53312 8.75989,7.0967c0,8.1932 0,41.55661 0,57.52062c0,5.22861 -4.20193,8.59074 -8.26638,8.59074c-8.62524,0 -41.44917,0 -57.00098,0c-5.04032,0 -8.26638,-3.46912 -8.26638,-8.83975z"/></g></g></svg>